<svg id="Layer_1" data-name="Layer 1" xmlns="http://www.w3.org/2000/svg" viewBox="0 0 53.59 53.59"><defs><style>.cls-1{fill:#b9a9a2;}.cls-2{fill:#fff;}</style></defs><circle class="cls-1" cx="26.79" cy="26.79" r="26.79"/><path class="cls-2" d="M85.89,88.94a3.36,3.36,0,0,1,3.35-3.36h4.49a3.35,3.35,0,0,1,3.33,3,15.51,15.51,0,0,0,.61,2.94,3.37,3.37,0,0,1-.83,3.35L95,96.65a20.91,20.91,0,0,0,8.3,8.3l1.82-1.82a3.34,3.34,0,0,1,3.35-.82,17.25,17.25,0,0,0,2.94.61,3.33,3.33,0,0,1,3,3.32v4.5a3.35,3.35,0,0,1-3.67,3.33A27.48,27.48,0,0,1,85.9,89.25c0-.1,0-.21,0-.31Zm9.7,3.53a1.33,1.33,0,0,0,0-.34,18,18,0,0,1-.7-3.34,1.11,1.11,0,0,0-1.11-1H89.24a1.13,1.13,0,0,0-.83.36,1.12,1.12,0,0,0-.29.87,25.22,25.22,0,0,0,22.81,22.81,1.12,1.12,0,0,0,1.23-1.11v-4.5a1.11,1.11,0,0,0-1-1.11,19,19,0,0,1-3.34-.69,1.1,1.1,0,0,0-1.12.27l-3,3-.72-.35A23.25,23.25,0,0,1,92.66,96.94l-.36-.72,3-3a1.13,1.13,0,0,0,.33-.79Zm0,0" transform="translate(-73.35 -73.04)"/></svg>