<svg width="88" height="99" xmlns="http://www.w3.org/2000/svg">
 <style type="text/css">.st1{fill:none;stroke:#A0AB9B;stroke-width:2.022;}</style>

 <g>
  <title>Layer 1</title>
  <g id="svg_1">
   <path id="svg_15" d="m25.67001,97.85c0,0 -10.38,-18.46 15.64999,-35.15c26.01999,-16.68999 23.85999,-35.7 23.85999,-35.7" class="st1"/>
   <path id="svg_16" d="m32.82999,69.01c0,0 -12.82001,-6.21 -6.45999,-18.71c0,0 4.98999,-7.28001 13.79001,-4.25c0,0 -3.55002,12.88 -15.25,11.12" class="st1"/>
   <path id="svg_17" d="m26.42001,49.72c0,0 -2.73001,-13.69 -8.10001,-14.74c0,0 -8.5,13.94 6.04001,21.31" class="st1"/>
   <path id="svg_18" d="m25.79999,77.67c0,0 -7.69,-16.79 -23.82999,-10.47c0,0 5.59998,18.71001 23.72998,10.95" class="st1"/>
   <path id="svg_19" d="m68.54001,42.23c0,0 -10.76001,7.47 -4.87,17.73m-13.91,-3.09c0,0 10.44,9.68999 19.78,-0.76c0,0 4.20001,-7.42 -1.82001,-14.53" class="st1"/>
   <path id="svg_20" d="m69.67999,55.82c0,0 10.79001,-4.15 17.04999,2.25c0,0 -9.07999,11.96 -22.06,2.09" class="st1"/>
   <path id="svg_21" d="m64.79001,27.63c0,0 11.19,-16.59 -2.88,-25.76c0,0 -12.16998,16.95 4.23001,25.44" class="st1"/>
   <path id="svg_22" d="m55.42999,50.24c0,0 -1.79999,-11.95 -6.87,-15.59" class="st1"/>
   <path id="svg_23" d="m49.37,35.09c0,0 0.73001,-14.7 -12.94,-15.51c0,0 -2.17001,15.27 13.41,15.7" class="st1"/>
   <path id="svg_24" d="m24.35999,86.86c0,0 10.30002,0.51 15.85001,-2.17" class="st1"/>
   <path id="svg_25" d="m40.45001,84.71c0,0 13.51999,-3.39 8.91998,-16.28c0,0 -14.17999,2.69 -8.81998,17.32" class="st1"/>
   <path id="svg_26" d="m33.32001,86.72c0,0 0.76999,10.98 9.97,10.19c0,0 -0.45999,-11.47 -10.45001,-9.60001" class="st1"/>
  </g>
 </g>
</svg>
