<svg id="Layer_1" data-name="Layer 1" xmlns="http://www.w3.org/2000/svg" viewBox="0 0 53.59 53.59"><defs><style>.cls-1{fill:#b8a9a2;}.cls-2{fill:#fff;}</style></defs><circle class="cls-1" cx="26.79" cy="26.79" r="26.79"/><path class="cls-2" d="M100,89.1A12.89,12.89,0,0,0,87.13,102c0,5.07,2.12,10.2,6.14,14.83a32.92,32.92,0,0,0,6.1,5.51,1.19,1.19,0,0,0,1.26,0,32.92,32.92,0,0,0,6.1-5.51c4-4.63,6.14-9.76,6.14-14.83A12.89,12.89,0,0,0,100,89.1Zm0,30.83c-2.37-1.76-10.56-8.55-10.56-18a10.56,10.56,0,1,1,21.12,0c0,9.4-8.19,16.19-10.56,18Zm0,0" transform="translate(-73.21 -79.01)"/><path class="cls-2" d="M100,96.86a5.11,5.11,0,1,0,5.11,5.11A5.12,5.12,0,0,0,100,96.86Zm0,7.91a2.8,2.8,0,1,1,2.8-2.8,2.8,2.8,0,0,1-2.8,2.8Zm0,0" transform="translate(-73.21 -79.01)"/></svg>