<svg id="Layer_1" data-name="Layer 1" xmlns="http://www.w3.org/2000/svg" viewBox="0 0 53.59 53.59"><defs><style>.cls-1{fill:#b9a9a2;}.cls-2{fill:#fff;}</style></defs><circle class="cls-1" cx="26.79" cy="26.79" r="26.79"/><path class="cls-2" d="M117.26,113.37H87a1,1,0,0,1-1-1V91.94a1,1,0,0,1,1-1h30.27a1,1,0,0,1,1,1v20.43A1,1,0,0,1,117.26,113.37Zm-29.27-2h28.27V92.94H88Z" transform="translate(-75.33 -75.36)"/><path class="cls-2" d="M102.13,105.3a4.44,4.44,0,0,1-3-1.13L86.32,92.68a1,1,0,0,1-.27-1.1,1,1,0,0,1,.94-.65h30.27a1,1,0,0,1,.94.65,1,1,0,0,1-.27,1.1l-12.85,11.49A4.43,4.43,0,0,1,102.13,105.3ZM89.62,92.94l10.88,9.73a2.43,2.43,0,0,0,3.25,0h0l10.88-9.73Z" transform="translate(-75.33 -75.36)"/><path class="cls-2" d="M117.26,113.23H87a1,1,0,0,1-.94-.64,1,1,0,0,1,.27-1.11L97.59,101.4a1,1,0,1,1,1.34,1.5l-9.31,8.33h25l-9.31-8.33a1,1,0,0,1,1.34-1.5l11.27,10.08a1,1,0,0,1,.27,1.11A1,1,0,0,1,117.26,113.23Z" transform="translate(-75.33 -75.36)"/></svg>